<svg xmlns="http://www.w3.org/2000/svg" viewBox="0 0 56.868 56.868"><path d="M23.403 29.313l7.071-7.071 20.55 20.55a15.216 15.216 0 0 1 4.413 11.929l-.16 2.098a.052.052 0 0 1-.09.033l-2.808-2.807a10.528 10.528 0 0 0-4.89-2.77 10.528 10.528 0 0 1-4.89-2.768L23.403 29.313z" fill="#e0e1e2"/><path d="M17.834 27.81l11.14-11.138a1.123 1.123 0 0 1 1.588 0l1.946 1.946c.44.439.44 1.15 0 1.589L21.37 31.346a1.123 1.123 0 0 1-1.589 0L17.834 29.4a1.123 1.123 0 0 1 0-1.59z" fill="#38454f"/><path d="M41.081 37.505c.256 0 .512.098.707.293l4.95 4.95a.999.999 0 1 1-1.414 1.414l-4.95-4.95a.999.999 0 0 1 .707-1.707z" fill="#fff"/><path d="M1.491 9.562L10.948.105c.14-.14.366-.14.505 0l3.48 3.48c.14.14.14.366 0 .505l-9.457 9.457a.356.356 0 0 1-.505 0l-3.48-3.48a.356.356 0 0 1 0-.505z" fill="#38454f"/><path fill="#556080" d="M19.868 25.777L6.557 12.467l7.07-7.072L26.94 18.706z"/><path fill="#38454f" d="M16.76 22.67l1.415 1.414 7.17-6.972-1.415-1.415zm-2.828-2.83l1.414 1.416 7.17-6.973-1.414-1.414zm-2.828-2.827l1.414 1.415 7.17-6.973-1.415-1.414zm-2.829-2.828l1.414 1.414 7.17-6.973-1.414-1.414z"/></svg>